<svg width="212" height="217" viewBox="0 0 212 217" fill="none" xmlns="http://www.w3.org/2000/svg">
<g clip-path="url(#clip0_494_146)">
<path d="M4 117V213H99" stroke="black" stroke-width="8"/>
<path d="M208.019 0V71H117V96L212 96" stroke="black" stroke-width="8"/>
<path d="M123 213H208V117" stroke="black" stroke-width="8"/>
<path d="M158 163H206" stroke="black" stroke-width="8"/>
<mask id="path-5-inside-1_494_146" fill="white">
<path fill-rule="evenodd" clip-rule="evenodd" d="M50 100C77.6142 100 100 77.6142 100 50C100 22.3858 77.6142 0 50 0C22.3858 0 0 22.3858 0 50C0 77.6142 22.3858 100 50 100ZM78.2843 78.2843C85.7857 70.7828 90 60.6087 90 50H50L10 50C10 60.6087 14.2143 70.7828 21.7157 78.2843C29.2172 85.7857 39.3913 90 50 90C60.6087 90 70.7828 85.7857 78.2843 78.2843Z"/>
</mask>
<path fill-rule="evenodd" clip-rule="evenodd" d="M50 100C77.6142 100 100 77.6142 100 50C100 22.3858 77.6142 0 50 0C22.3858 0 0 22.3858 0 50C0 77.6142 22.3858 100 50 100ZM78.2843 78.2843C85.7857 70.7828 90 60.6087 90 50H50L10 50C10 60.6087 14.2143 70.7828 21.7157 78.2843C29.2172 85.7857 39.3913 90 50 90C60.6087 90 70.7828 85.7857 78.2843 78.2843Z" fill="black"/>
<path d="M90 50H91V49H90V50ZM50 50V49V50ZM10 50V49H9V50H10ZM21.7157 78.2843L22.4228 77.5772H22.4228L21.7157 78.2843ZM99 50C99 77.062 77.062 99 50 99V101C78.1665 101 101 78.1665 101 50H99ZM50 1C77.062 1 99 22.938 99 50H101C101 21.8335 78.1665 -1 50 -1V1ZM1 50C1 22.938 22.938 1 50 1V-1C21.8335 -1 -1 21.8335 -1 50H1ZM50 99C22.938 99 1 77.062 1 50H-1C-1 78.1665 21.8335 101 50 101V99ZM89 50C89 60.3434 84.8911 70.2632 77.5772 77.5772L78.9914 78.9914C86.6804 71.3024 91 60.8739 91 50H89ZM50 51H90V49H50V51ZM10 51L50 51V49L10 49V51ZM22.4228 77.5772C15.1089 70.2633 11 60.3434 11 50H9C9 60.8739 13.3196 71.3024 21.0086 78.9914L22.4228 77.5772ZM50 89C39.6566 89 29.7368 84.8911 22.4228 77.5772L21.0086 78.9914C28.6976 86.6804 39.1261 91 50 91V89ZM77.5772 77.5772C70.2632 84.8911 60.3434 89 50 89V91C60.8739 91 71.3024 86.6804 78.9914 78.9914L77.5772 77.5772Z" fill="black" mask="url(#path-5-inside-1_494_146)"/>
<path d="M-3.25826e-06 50C-2.09896e-06 36.7392 5.26784 24.0215 14.6447 14.6447C24.0215 5.26785 36.7392 2.09896e-06 50 3.25826e-06C63.2608 4.41755e-06 75.9785 5.26784 85.3553 14.6447C94.7322 24.0215 100 36.7392 100 50L50 50L-3.25826e-06 50Z" fill="black"/>
<rect x="113" width="99" height="50" fill="black"/>
<rect y="117" width="99" height="50" fill="black"/>
<rect x="163" y="117" width="100" height="50" transform="rotate(90 163 117)" fill="black"/>
</g>
<defs>
<clipPath id="clip0_494_146">
<rect width="212" height="217" fill="white"/>
</clipPath>
</defs>
</svg>
