<svg width="22" height="23" viewBox="0 0 22 23" fill="none" xmlns="http://www.w3.org/2000/svg">
<path d="M0.448838 22.0315L0.452858 22.0355C0.559476 22.1429 0.686272 22.2282 0.825957 22.2864C0.965641 22.3446 1.11546 22.3747 1.26679 22.3748C1.39413 22.3747 1.5206 22.3537 1.64113 22.3126L8.20392 20.0864L20.7975 7.49283C21.5673 6.72289 21.9998 5.67865 21.9998 4.58983C21.9997 3.50101 21.5671 2.45681 20.7972 1.68693C20.0273 0.917057 18.983 0.484571 17.8942 0.484619C16.8054 0.484667 15.7612 0.917244 14.9913 1.68719L2.39776 14.2807L0.171687 20.8433C0.101566 21.0474 0.0903732 21.2671 0.139393 21.4773C0.188412 21.6874 0.295659 21.8795 0.448838 22.0315ZM16.0371 2.73289C16.5303 2.24344 17.1974 1.96938 17.8922 1.97071C18.5871 1.97205 19.2531 2.24867 19.7444 2.74001C20.2357 3.23135 20.5123 3.89736 20.5137 4.59221C20.515 5.28706 20.2409 5.95412 19.7514 6.44731L18.0954 8.10338L14.3809 4.38895L16.0371 2.73289ZM3.68762 15.0823L13.3352 5.43466L17.0497 9.14908L7.402 18.7967L1.7807 20.7036L3.68762 15.0823Z" fill="#454545"/>
</svg>
